<svg width="26" height="26" viewBox="0 0 26 26" fill="none" xmlns="http://www.w3.org/2000/svg">
<path d="M20.5837 8.66663C19.6809 8.66663 18.9135 8.35065 18.2816 7.71871C17.6496 7.08676 17.3337 6.3194 17.3337 5.41663C17.3337 4.51385 17.6496 3.74649 18.2816 3.11454C18.9135 2.4826 19.6809 2.16663 20.5837 2.16663C21.4864 2.16663 22.2538 2.4826 22.8857 3.11454C23.5177 3.74649 23.8337 4.51385 23.8337 5.41663C23.8337 6.3194 23.5177 7.08676 22.8857 7.71871C22.2538 8.35065 21.4864 8.66663 20.5837 8.66663ZM4.33366 21.6666C3.73783 21.6666 3.22776 21.4545 2.80345 21.0302C2.37914 20.6059 2.16699 20.0958 2.16699 19.5V6.49996C2.16699 5.90413 2.37914 5.39406 2.80345 4.96975C3.22776 4.54545 3.73783 4.33329 4.33366 4.33329H15.2753C15.2031 4.6944 15.167 5.05552 15.167 5.41663C15.167 5.77774 15.2031 6.13885 15.2753 6.49996C15.4017 7.07774 15.6094 7.61489 15.8982 8.11142C16.1871 8.60795 16.5392 9.04579 16.9545 9.42496L13.0003 11.9166L4.33366 6.49996V8.66663L13.0003 14.0833L18.7149 10.5083C19.0219 10.6166 19.3288 10.6979 19.6357 10.752C19.9427 10.8062 20.2587 10.8333 20.5837 10.8333C21.1614 10.8333 21.7302 10.743 22.2899 10.5625C22.8496 10.3819 23.3642 10.1111 23.8337 9.74996V19.5C23.8337 20.0958 23.6215 20.6059 23.1972 21.0302C22.7729 21.4545 22.2628 21.6666 21.667 21.6666H4.33366Z" fill="#1D1B20"/>
</svg>
