<svg width="26" height="26" viewBox="0 0 26 26" fill="none" xmlns="http://www.w3.org/2000/svg">
<path fill-rule="evenodd" clip-rule="evenodd" d="M5.0375 18.2C5.19095 17.9954 5.43176 17.875 5.6875 17.875H9.75C10.1987 17.875 10.5625 18.2388 10.5625 18.6875C10.5625 19.1362 10.1987 19.5 9.75 19.5H6.09375L2.4375 24.375H23.5625L19.9063 19.5H16.25C15.8013 19.5 15.4375 19.1362 15.4375 18.6875C15.4375 18.2388 15.8013 17.875 16.25 17.875H20.3125C20.5682 17.875 20.8091 17.9954 20.9625 18.2L25.8375 24.7C26.0222 24.9462 26.0519 25.2756 25.9142 25.5509C25.7766 25.8261 25.4953 26 25.1875 26H0.812505C0.504752 26 0.223414 25.8261 0.0857826 25.5509C-0.0518484 25.2756 -0.0221467 24.9462 0.162505 24.7L5.0375 18.2Z" fill="black"/>
<path fill-rule="evenodd" clip-rule="evenodd" d="M13 1.625C10.3076 1.625 8.125 3.80761 8.125 6.5C8.125 9.19239 10.3076 11.375 13 11.375C15.6924 11.375 17.875 9.19239 17.875 6.5C17.875 3.80761 15.6924 1.625 13 1.625ZM6.5 6.5C6.5 2.91015 9.41015 0 13 0C16.5899 0 19.5 2.91015 19.5 6.5C19.5 9.81469 17.0189 12.5499 13.8125 12.9497V21.9375C13.8125 22.3862 13.4487 22.75 13 22.75C12.5513 22.75 12.1875 22.3862 12.1875 21.9375V12.9497C8.98113 12.5499 6.5 9.81469 6.5 6.5Z" fill="black"/>
</svg>
